<svg width="8" height="7" viewBox="0 0 8 7" fill="none" xmlns="http://www.w3.org/2000/svg">
<path fill-rule="evenodd" clip-rule="evenodd" d="M4.90325 0.685059V3.0992H4.5V3.56624H5V2.86568H6.25V3.4385H7.25V3.90554H8V1.16705H6.96775V2.8547H6.19325V0.685059H4.90325ZM0 0.926286V4.02277H0.8625V4.48981H1.12475V3.43897H1.72775V2.97193H2.99975V2.39863H3.6125V1.64973H3.0965V1.40827H2.32275V1.64973H1.8065V2.37248H0.79975V0.926286H0ZM3.24975 2.63215V3.67202H2.7965V3.20498H1.978V3.67202H1.375V4.72287H0.61225V4.25582H0.01225L0.00025 6.60201H2.634V5.16586C2.58713 5.16112 2.54264 5.14411 2.50568 5.11677C2.46871 5.08944 2.44078 5.0529 2.42509 5.01137C2.40941 4.96983 2.40662 4.92501 2.41704 4.88206C2.42747 4.83911 2.45068 4.79979 2.484 4.76864L3.8235 3.51767C3.86947 3.47494 3.93141 3.45058 3.99625 3.44971C4.06375 3.44738 4.129 3.47306 4.177 3.51743L4.25025 3.58609V2.63215H3.25025H3.24975ZM5.24975 3.0992L5.25425 4.48164C5.25425 4.48164 5.25325 4.50803 5.25075 4.52134L5.51575 4.76887C5.54907 4.80002 5.57228 4.83934 5.58271 4.88229C5.59313 4.92524 5.59034 4.97007 5.57466 5.0116C5.55897 5.05313 5.53104 5.08967 5.49407 5.11701C5.45711 5.14434 5.41262 5.16136 5.36575 5.16609V6.60201H7.99975V4.13906H6.99975V3.67202H5.99975V3.0992H5.24975ZM3.99975 3.683L2.6605 4.93397H5.339L3.99975 3.683ZM4.781 4.09983V4.27591L5.00425 4.48117V4.09983H4.781ZM2.8835 5.03789V6.60201H3.7765V5.66559H4.223V6.60201H5.116V5.03789H2.8835Z" fill="black"/>
</svg>
