<svg width="8" height="9" viewBox="0 0 8 9" fill="none" xmlns="http://www.w3.org/2000/svg">
<path d="M7.88572 3.74025C7.84973 3.7153 7.80805 3.69846 7.76394 3.69106C7.71983 3.68365 7.67449 3.68587 7.63145 3.69755L5.14301 4.39678V3.95376C5.14303 3.91232 5.13271 3.87145 5.11287 3.83439C5.09303 3.79733 5.06423 3.7651 5.02873 3.74025C4.99274 3.7153 4.95106 3.69846 4.90695 3.69106C4.86284 3.68365 4.8175 3.68587 4.77446 3.69755L2.07746 4.45282L2.00032 3.1371C1.99606 3.06909 1.96408 3.00519 1.91094 2.95853C1.8578 2.91187 1.78755 2.886 1.71462 2.88623H0.571827C0.498899 2.886 0.428646 2.91187 0.375509 2.95853C0.322372 3.00519 0.290386 3.06909 0.286128 3.1371L0.000428837 7.94096C-0.00168808 7.97744 0.00404774 8.01395 0.0172971 8.04833C0.0305465 8.08271 0.0510406 8.11426 0.0775676 8.14112C0.104595 8.16729 0.136993 8.18811 0.172828 8.20232C0.208662 8.21654 0.247196 8.22386 0.286128 8.22385H7.7143C7.79 8.22364 7.86254 8.19545 7.91607 8.14545C7.9696 8.09544 7.99977 8.02768 8 7.95697V3.95376C8.00002 3.91232 7.9897 3.87145 7.96986 3.83439C7.95002 3.79733 7.92122 3.7651 7.88572 3.74025ZM4.57161 7.69009H2.27174L2.11174 5.0026L4.57161 4.31138V7.69009ZM7.4286 7.69009H5.14301V4.95189L7.4286 4.31138V7.69009Z" fill="black"/>
<path d="M4.00022 5.55469H2.85742V6.08845H4.00022V5.55469Z" fill="black"/>
<path d="M4.00022 6.62256H2.85742V7.15632H4.00022V6.62256Z" fill="black"/>
<path d="M6.85715 5.55469H5.71436V6.08845H6.85715V5.55469Z" fill="black"/>
<path d="M6.85715 6.62256H5.71436V7.15632H6.85715V6.62256Z" fill="black"/>
<path d="M0.857531 2.35226C0.857705 2.21075 0.917961 2.07508 1.02508 1.97501C1.1322 1.87495 1.27744 1.81866 1.42893 1.8185H1.58786C1.48494 1.98002 1.43007 2.16429 1.42893 2.35226V2.61914H2.00033V2.35226C2.0005 2.21075 2.06076 2.07508 2.16788 1.97501C2.275 1.87495 2.42023 1.81866 2.57172 1.8185H4.85732C5.1603 1.8182 5.45079 1.70563 5.66504 1.50549C5.87928 1.30536 5.99979 1.03401 6.00011 0.750977H5.42871C5.42854 0.892489 5.36828 1.02816 5.26116 1.12822C5.15404 1.22829 5.00881 1.28458 4.85732 1.28474H4.69838C4.8013 1.12321 4.85617 0.938944 4.85732 0.750977H4.28592C4.28574 0.892489 4.22549 1.02816 4.11837 1.12822C4.01125 1.22829 3.86601 1.28458 3.71452 1.28474H1.42893C1.12594 1.28504 0.835454 1.39761 0.621209 1.59774C0.406964 1.79788 0.286458 2.06923 0.286133 2.35226V2.61914H0.857531V2.35226Z" fill="black"/>
</svg>
